
<svg xmlns="http://www.w3.org/2000/svg" version="1.1" xmlns:xlink="http://www.w3.org/1999/xlink" preserveAspectRatio="none" x="0px" y="0px" width="500px" height="500px" viewBox="0 0 500 500">
<defs>
<g id="Listening_0_Layer0_0_FILL">
<path fill="#FFCC99" stroke="none" d="
M 295.7 287.35
L 295.7 263.55
Q 275.9517578125 251.2732421875 267.45 227.75 243.21328125 261.8111328125 196.8 265.05
L 196.8 287.3
Q 199.81796875 309.66796875 217.15 322.35 230.1970703125 331.298046875 246.45 331.7 262.599609375 331.9755859375 276.65 321.75 291.98046875 310.2162109375 295.7 287.4 295.69375 287.382421875 295.7 287.35 Z"/>

<path fill="#000000" stroke="none" d="
M 309.9 247.25
Q 309.9 220.9 291.25 202.25 272.6 183.65 246.25 183.65 219.95 183.65 201.3 202.25 182.65 220.9 182.65 247.25 182.65 270.197265625 196.8 287.3
L 196.8 265.05
Q 243.21328125 261.8111328125 267.45 227.75 275.9517578125 251.2732421875 295.7 263.55
L 295.7 287.35
Q 309.9 270.2423828125 309.9 247.25 Z"/>
</g>

<g id="Listening_0_Layer0_0_STROKES_1_FILL">
<path fill="#000000" stroke="none" d="
M 214.2 191.6
Q 211.55 193.15 208.65 195.15 206.05 197.05 203.55 199.2
L 200.7 201.75 200.6 201.9 199.55 202.85 199.45 203 198.85 203.55
Q 194.35 208.2 190.95 213.3 189.4 215.65 187.85 218.6 186.55 220.95 185.4 224.05 184.35 226.55 183.55 229.55 182.8 232.35 182.35 235.1
L 182.2 235.75 181.4 245.1 181.35 245.4 181.5 250.75
Q 181.65 253.15 181.95 255.5
L 183.45 263.2 187.05 273.1 192.5 282.3 194.55 284.9
Q 194.6 285 195.45 286
L 196.65 287.35 197.45 294.35 198.7 299.4 199.5 301.65 199.55 301.9 200.75 304.85
Q 201.6 306.7 203.05 309.3
L 203.6 310.15 203.75 310.45 205.1 312.45
Q 205.2 312.65 205.3 312.7
L 206.1 313.85
Q 207.8 316.1 209.95 318.3
L 214.9 322.7 215.05 322.8 215.25 322.9 215.85 323.4 216 323.5 216.1 323.55 216.1 323.6
Q 216.15 323.6 216.2 323.65
L 223.35 327.7 226.05 328.85
Q 229.05 330.05 232.55 331
L 238.3 332.1 238.5 332.1 246.7 332.5 247.15 332.45
Q 247.75 332.45 248 332.4
L 248.9 332.35
Q 249.45 332.35 249.75 332.3
L 256.55 331.3 259.85 330.45
Q 261.85 329.9 263.1 329.45
L 266.2 328.3
Q 269.35 327.1 272.2 325.6
L 277.2 322.65 277.25 322.65 277.3 322.6 277.4 322.55 281.95 318.9 282.05 318.75 282.2 318.65 286.15 314.25 286.35 313.95
Q 287.95 311.85 289.35 309.4 290.7 307.1 291.6 304.9
L 292.3 303.3 295.05 293.65
Q 295.5 291.15 295.7 289.05
L 295.7 288.65 295.8 287.8 295.8 287.45 295.85 287.4 300.95 280.95 305 273.95 308.75 264.3
Q 310 259.85 310.55 255.65 310.95 252.6 311.05 250.85
L 311.2 245.85
Q 311.2 244.2 311 240.6 310.8 238.25 310.3 235.15 309.75 231.9 309.15 229.65
L 307.4 224.05
Q 305.3 218.35 302.05 213.15
L 296.95 206.15 296.65 205.85 295.9 204.9 295.75 204.75 295.65 204.6 289.6 198.6
Q 287.7 196.85 284.5 194.5 278.8 190.4 272.85 187.8 266.9 185.1 259.9 183.85 256.3 183.2 253.1 183
L 245.9 182.8 234.5 184 233.45 184.25 233.25 184.25 232.85 184.35
Q 226.1 185.8 220.1 188.55 216.95 189.95 214.2 191.6
M 209.3 196
Q 214.5 192.05 220.45 189.35 226.4 186.7 233.05 185.45
L 238 184.75
Q 238.25 184.7 238.8 184.7
L 239.65 184.6 248.8 184.55 252.95 184.9
Q 256.85 185.45 259.45 186.05
L 265.75 187.8 271.8 190.2
Q 277.65 193 282.75 196.8 287.7 200.55 292 205.25
L 293.25 206.7 293.4 206.85 293.5 207 294.25 207.85 294.35 208 294.5 208.15 299.3 214.85
Q 302.35 219.75 304.45 225.15
L 306.2 230.45
Q 306.95 233.1 307.4 235.7 307.9 238.2 308.15 240.85 308.4 243.1 308.5 245.9
L 308.45 252.8 308.4 253.1 308.25 255.35 305.8 267.55 305.2 269.35 305.1 269.75 302.4 276.25 296.65 285.8 295.9 286.85 296.9 263.55
Q 296.95 262.9 296.4 262.5
L 296.35 262.45 289.5 257.35 283.85 251.95 278.9 245.95 272.45 235.75 268.7 227.25
Q 268.5 226.7 268 226.5 267.45 226.25 266.95 226.45 266.5 226.65 266.35 226.95
L 258.5 237.05 255.45 240.3 255.25 240.55 255 240.75 253.4 242.35 253.15 242.55
Q 252.55 243.15 252.2 243.4
L 251.65 243.95 251.5 244.05 247.25 247.5
Q 245.9 248.55 245.2 249
L 244.1 249.7 243.6 250.1 241.95 251.1 241.65 251.25 241.4 251.45 239.6 252.5 239.45 252.55 232.8 255.75 230.7 256.55 230.55 256.65 215.65 260.9 196.7 263.85 196.6 263.85
Q 196.2 263.9 195.9 264.25 195.6 264.6 195.6 265.05
L 196.5 285.9 196.6 286.75 191.7 279.2 187.85 270.9
Q 186.55 267.4 185.65 263.7
L 184.25 255.55 184.25 255.25 183.9 245.6 183.95 245.45 184.2 241.05 184.25 240.75
Q 184.45 238.45 184.95 235.55
L 187.85 224.95
Q 189.95 219.35 192.85 214.5
L 196.15 209.45
Q 197.95 207 200.05 204.65
L 200.55 204.05 200.7 203.95 200.8 203.8 201.6 202.9 201.75 202.8 201.8 202.7 201.9 202.65 202.15 202.35 204.4 200.15
Q 206.75 197.95 209.3 196
M 252.45 244.95
L 252.55 244.85 258.05 240.2 265.3 232.65 266.95 230.6 267 230.5 270.8 239.05 272.25 241.65
Q 272.45 242.1 273 242.95
L 278.1 250.25 283.7 256.2 286.5 258.65
Q 287.3 259.25 287.65 259.6
L 294.45 264.25 295.55 287.3
Q 295.487890625 287.362109375 295.5 287.4
L 295.4 287.75 295.3 288.25 292.45 297.3 292.25 297.7 291.35 300
Q 289.55 304.35 287.15 308.1 286.05 309.9 284.2 312.35
L 280.35 316.75 280.25 316.9 280.1 317 276.35 320.55 276.05 320.75 276 320.85 275.95 320.85 275.95 320.9 268.7 325.85
Q 267.2 326.75 265.8 327.35
L 262.8 328.6
Q 261.65 329.05 259.6 329.6 256.95 330.35 253.05 330.8
L 251.35 330.9
Q 250.8 330.9 250.5 330.95
L 248 330.95
Q 247.7 330.9 247.15 330.9
L 246.75 330.85 246.35 330.85 244.65 330.7 244.45 330.7 244.2 330.65 243 330.5 233.25 328.45
Q 230.2 327.5 227.2 326.2 223.9 324.65 221.6 323.3
L 218.05 321 218 321 217.95 320.9 217.15 320.35 217 320.2 212.2 316.05
Q 210.2 314.1 208.45 312
L 205.35 307.9
Q 204.15 306.1 202.85 303.8
L 200.45 298.75 200.4 298.55 200 297.65 199 294.75 198.85 294.4 198.75 294 198.6 293.65 198.5 293.3
Q 197.95 291.5 197.3 288.85
L 196.9 287.3 196.9 287.3 196.95 287.3 197.9 266.1 199.45 266.05 199.8 266 202.05 265.85 213.7 264.05 224.35 260.85 230.95 258.05 231.1 257.95 231.25 257.9 239.9 253.35 240.05 253.3 241.85 252.2 242.15 252.05 242.4 251.85 243.5 251.2 252.45 244.95 Z"/>
</g>

<g id="Listening_0_Layer0_1_FILL">
<path fill="#999999" stroke="none" d="
M 17.95 85.5
Q 13.2 85.3 7.35 88.45 2.4 91.3 0.95 97.9 0.75 98.9 0.6 99.95 0.6 100.7 0.65 101.45 1.05 110.5 7.05 114.1 12.3 117.55 17.95 118.6
L 17.95 85.5
M 206.8 88.45
Q 200.95 85.3 196.2 85.5
L 196.2 118.6
Q 201.85 117.55 207.1 114.1 213.6 110.2 213.55 99.95 212.5 91.75 206.8 88.45 Z"/>

<path fill="#FFFFFF" stroke="none" d="
M 196.2 82.35
Q 196.05 77.35 190.5 75.1 184.6 43.5 162.2 21.2 138.25 0.35 107.45 0 73.2 1.75 50.35 21.2 27.6 43.15 23.45 74 17.95 76.3 17.95 80.75
L 17.95 85.5 17.95 118.6 17.95 121.85
Q 18.35 127.55 24.4 128.7 28.85 129.65 33.3 128.7 38.05 127.25 38.65 121.85
L 38.65 82.25
Q 38.9 76.1 34.15 74.95 34.8 55.55 47.6 39.8 72.4 11.75 106.05 10.85 139.55 9.55 164.75 39.8 177.35 56.2 179.5 74.95 175.25 76.85 175.1 81.3
L 175.1 122.05
Q 175.65 128.75 182.5 130.25 185.85 130.8 189.15 130.25 196.05 128.8 196.2 122.05
L 196.2 118.6 196.2 85.5 196.2 82.35 Z"/>
</g>

<g id="Listening_0_Layer0_1_STROKES_1_FILL">
<path fill="#000000" stroke="none" d="
M 114.85 -0.85
L 107.05 -1.25
Q 102.7 -1 99.35 -0.6 95.55 -0.2 91.7 0.45 83.8 1.95 76.75 4.45 69.4 7.1 62.7 10.9 58.85 13.15 56.15 15.05
L 50.9 19 50.75 19.15 49.65 20.1 49.55 20.15 49.4 20.3 49.2 20.45 48.2 21.5 48 21.65 47.85 21.85 44.55 25.35
Q 41.8 28.5 39.65 31.35 37 34.9 35.25 37.7 32.95 41.45 31.45 44.45 28 51.2 25.7 58.8 24.5 63 23.85 66.25 23.1830078125 69.204296875 22.6 73.4
L 21.6 73.9 20.2 74.85 20 74.95 19.7 75.25 19.5 75.4 18.9 76
Q 18.5 76.45 17.9 77.45 17.5 78.3 17.3 79.15
L 17.2 80.05 17.15 80.25 17.2 85.3 16.75 85.3 16.35 85.35
Q 15.85 85.35 15.55 85.4
L 12.85 85.9 8.8 87.4 7.2 88.2 7.15 88.25 7.1 88.25 7.05 88.3 6.05 88.95 5.85 89.05 4.35 90.4 4.25 90.55 3.9 90.9 3.85 91 3.45 91.45 2.8 92.45 2.65 92.6 2.6 92.7 2.55 92.75 2.35 93.1 2.3 93.3 2 93.8 1.4 95.3 1.3 95.45 1.25 95.65 1.1 96.05 0.65 97.75 0.65 97.85 0.6 97.95 0.3 99.9 0.3 101.25 0.8 105.25
Q 0.95 106.2 1.25 106.95 1.8 108.7 2.75 110.25 3.25 111.1 3.8 111.7 4.6 112.6 5.05 112.95
L 6.5 114.05 11.15 116.65 12.8 117.3 13 117.4 13.2 117.45 14.45 117.9 14.9 118 15.1 118.1 17.75 118.65 17.8 121.85
Q 17.8 122.95 18.2 124.25
L 18.7 125.35
Q 18.9 125.75 19.45 126.4 19.9 126.9 20.35 127.25
L 21.35 127.95 23.65 128.85 23.95 128.9 24.25 129 26.95 129.45 31.25 129.45 32.75 129.25 33.35 129.1 33.4 129.1 35.4 128.3 35.65 128.1 35.9 127.95 36.65 127.35
Q 37 127 37.05 126.9
L 37.3 126.7 37.4 126.55 37.5 126.45 37.55 126.3 37.65 126.2 37.75 126.05 37.85 125.95 38.15 125.4 38.85 123.7 38.9 123.4 39 123.1 39.2 121.9 39.6 80.35 39.2 78.25 39.1 78.05 39.1 77.95 38.65 77 38.15 76.25
Q 38 76 37.55 75.55
L 36.85 74.95 36.65 74.85 36.45 74.7 35.25 74.1
Q 35.4107421875 71.135546875 35.85 68.5
L 37.2 62.15
Q 38.9 56.1 42.1 50.2
L 44.3 46.55 44.4 46.35 47.85 41.6 48 41.45 48.5 40.8 48.65 40.65 48.65 40.6 48.75 40.55 56.5 32.7
Q 57.35 32 59 30.6
L 59.6 30.05 59.75 29.95 59.9 29.8 66.45 24.95 69.55 23
Q 72.55 21.2 75.25 19.9 78.55 18.3 81.2 17.3
L 84.25 16.2 84.45 16.15 84.65 16.05 93.65 13.75
Q 96.5 13.2 100.1 12.8
L 101.7 12.65
Q 102.25 12.65 102.5 12.6
L 112.15 12.45 112.25 12.5 113.05 12.55
Q 113.65 12.55 114.65 12.65
L 115.5 12.75 115.9 12.75 116.1 12.8 116.3 12.8 117.9 13 118.3 13.1 119.5 13.25
Q 123 13.9 125.8 14.65 128.7 15.5 131.9 16.7
L 136.35 18.65 136.7 18.85 137.1 19 143.75 22.8 148.75 26.35 158.45 35 163.35 40.45 163.5 40.65 163.6 40.7 163.55 40.7 163.6 40.75 166.25 44.35 166.45 44.7 166.7 45 171.45 53.05 171.6 53.45 172.35 54.9 172.4 55.05 172.5 55.25 172.65 55.65 173.35 57.1 173.4 57.3 174.25 59.35 174.3 59.45 174.3 59.55 174.4 59.75 175.6 63.2 175.7 63.6 175.85 63.95 177 68.3 177.05 68.7 177.7 71.85 177.8 72.65 177.9 73.05 178 74.15 177.05 74.8 176 75.7 175.55 76.2 174.9 77.15
Q 174.45 78 174.15 78.85
L 174.05 79.3 174 79.4 174 79.5 173.9 79.95 173.9 80.05 173.85 80.15 174.1 122.1 174.3 123.45
Q 174.3 123.65 174.6 124.75 175.1 126.2 175.85 127.25
L 176.75 128.35 177.85 129.25 179 129.95 181.85 131 182.2 131.05 182.25 131.1 182.55 131.1 182.9 131.15
Q 184.05 131.35 185.5 131.35 186.75 131.35 188.1 131.2
L 189.05 131.05 189.25 131.05 189.3 131 189.4 131 191.95 130.15 192.85 129.7 193.1 129.5
Q 194.4 128.7 195.15 127.65 196.05 126.45 196.4 125.2
L 196.6 124.55 196.7 123.9 196.75 123.75 196.75 123.55 196.85 122.9 196.85 122.45 196.9 122.4 196.85 118.65 198.45 118.5 199.3 118.3 199.75 118.25 201.3 117.85 201.5 117.75 201.95 117.65 206.55 115.7 207.35 115.25 207.5 115.15 207.6 115.1 207.65 115.05 207.7 115.05 209.7 113.7 211.1 112.35
Q 211.85 111.55 212.3 110.8
L 213.25 109.1
Q 213.6 108.5 213.95 107.3
L 214.5 105.5 215 101.75 215 99.75 214.35 96.5 213.1 93.35
Q 212.8 92.65 212.25 91.85
L 211.2 90.5 209.95 89.25 208.6 88.2 208.05 87.9 207.85 87.75 207.75 87.7 207.7 87.65 207.4 87.5 207.35 87.5 207.3 87.45 207.1 87.35 202.55 85.7 199.75 85.2 197.75 85.15 197.35 85.2 196.95 85.2 196.75 85.25 196.65 85.25 196.65 82 196.6 81.85 196.6 81.5 196.55 81.35 196.55 81.2 196.2 79.9
Q 195.8 78.6 194.9 77.6 194.1 76.6 192.95 75.85 192.1607421875 75.3392578125 190.85 74.75 189.5556640625 67.4703125 187.05 60.15 184.75 53.15 181.15 46.05 177.6 39.15 173.1 32.95 170.4 29.3 168.4 26.9
L 164.2 22.25 164.05 22.05 162.9 20.85 162.7 20.7
Q 162.7 20.65 162.65 20.6
L 162.6 20.6 157.3 16.2
Q 154 13.65 151 11.8 144.6 7.6 137.35 4.65 130.25 1.75 122.5 0.25 119.3 -0.35 114.85 -0.85
M 165.95 38.95
L 165.9 38.9 165.85 38.8 165.75 38.7 165.65 38.55 164.55 37.3 164.3 36.95 154.55 27.1 147.25 21.35 141.5 17.75 133.85 14.05 133.1 13.75
Q 129.75 12.4 126.65 11.55 123.1 10.6 120 10.1
L 116.65 9.6 116.45 9.6 116.25 9.55 109.9 9.15 102.3 9.4
Q 102 9.45 101.45 9.45
L 99.75 9.65
Q 96.7 9.9 93.05 10.65
L 84.05 12.95 83.65 13.1 83.45 13.15 83.25 13.25 80.1 14.4
Q 76.45 15.9 73.9 17.15 70.65 18.75 68 20.45
L 57.9 27.7 46.6 38.8 46.6 38.85 46.35 39.1 42.65 44.2 39.85 48.95
Q 36.65 54.95 34.9 61.55 33.2 67.95 33.05 74.9 32.95 75.7 33.85 76
L 34.5 76.15 34.8 76.3 35.1 76.4 35.2 76.5 35.35 76.55 35.5 76.65 35.6 76.7 36.1 77.1 36.85 78.05 37.15 78.7 37.15 78.75 37.3 79.2
Q 37.45 79.65 37.55 80.55 37.65 81.5 37.6 81.95
L 38.05 121.75 38 122.05 38 122.3 37.9 122.85 37.85 123 37.85 123.1 37.75 123.4 37.7 123.65 37.1 125.15 36.9 125.5 36.8 125.6 36.75 125.7 36.65 125.85 36.55 125.95 36.5 126.05 35.95 126.65 35.75 126.8 35.55 127 34.65 127.6 34.4 127.7 34.15 127.85 33.15 128.25 33.2 128.25 31.15 128.6 31 128.6 30.85 128.65 27.35 128.75 27.2 128.7 26.75 128.7 23.8 128.25 22.7 127.9
Q 22.15 127.75 21.6 127.45 20.5 126.85 19.8 126.1 18.95 125.2 18.6 124.1 18.2 123.15 18.1 121.8
L 18.7 80.15 18.85 79.5
Q 19 78.8 19.3 78.2 19.9 77.1 21.2 76.15
L 23.75 74.75
Q 24.2 74.6 24.3 74.1 24.85 70.3 25.65 66.65 26.55 62.65 27.65 59.35 29.9 52.2 33.45 45.45 36.7 39.15 41.55 32.8 43.9 29.8 46.4 27.05
L 49.8 23.45 50 23.3 50.3 22.95 52.4 21.15 52.55 21 57.65 17.2
Q 60.45 15.2 64 13.2 70.65 9.45 77.65 7 84.3 4.6 92.2 3.1 96.2 2.35 99.65 1.95 104.05 1.45 107.2 1.3
L 107.4 1.25 114.6 1.6
Q 118.1 1.9 122.1 2.6 129.4 3.85 136.55 6.6 143.5 9.25 150.1 13.25 153.2 15.2 156.35 17.5
L 161.55 21.6 161.65 21.65 161.7 21.7 161.85 21.9 162.2 22.2
Q 167.85 27.85 172.15 33.65 176.7 39.65 180.25 46.5 183.85 53.4 186.2 60.45 188.55 67.35 190.05 75.15 190.05 75.4 190.3 75.5 191.45 75.95 192.45 76.6 193.55 77.35 194.2 78.15 195 79.1 195.35 80.2
L 195.6 81.35 195.65 81.5 195.65 81.9 195.7 82.05 195.45 122.5 195.4 122.75 195.4 123.05 195.35 123.35 195.3 123.5 195.3 123.65 195.25 123.9 195.15 124.2 195.1 124.5 195 124.75
Q 194.6 125.95 193.95 126.7 193.35 127.5 192.3 128.2
L 192.05 128.35 191.8 128.45 191.55 128.6 190.2 129.1
Q 189.6 129.35 189.05 129.4
L 189 129.4 188.95 129.45 188.8 129.45 188.2 129.55 187.9 129.55
Q 187.1 129.65 185.5 129.65 184.7 129.65 183.1 129.45
L 182.8 129.4 182.65 129.35 182.6 129.35 182.3 129.25 182 129.2 181.85 129.15 181.75 129.1 181.45 129.05 180.9 128.85 179.85 128.35 178.95 127.75
Q 178.2 127.15 178.1 127
L 177.4 126.15
Q 176.85 125.35 176.45 124.2
L 176.05 121.95 176.35 81.3 176.4 81.2 176.4 80.8 176.45 80.5 176.45 80.35 176.55 80.05 176.55 79.9 176.65 79.6 177.15 78.5 177.4 78.1 177.6 77.9 177.7 77.75 178.1 77.35 178.85 76.75 179.55 76.35 179.7 76.3 180 76.15 180.05 76.1
Q 180.9 75.7 180.8 74.75
L 179.55 67.25 176.95 58.55 176.85 58.35 175.25 54.45 175.05 54.1 175.05 54 170.5 45.5 166.2 39.25 165.95 38.95
M 196.75 85.6
L 196.95 85.65 197.7 85.65 199.25 85.85 201.5 86.4 201.85 86.55 202.25 86.65 204.4 87.5 206.5 88.55 206.95 88.85 207.15 88.95 207.45 89.15 208.9 90.35
Q 209.45 90.85 209.95 91.5 210.85 92.5 211.6 94.05
L 212.65 96.95 213.25 99.95 213.05 103.4 212.75 105.1
Q 212.6 105.95 212.3 106.8 212.05 107.7 211.7 108.4
L 210.9 109.95 209.9 111.35 208.7 112.55 206.6 114.1 206.2 114.3 205.85 114.55 204.7 115.2 204.35 115.45 202.95 116.15 202.75 116.2 202 116.6 201.15 116.9 200.75 117.1 199.55 117.55 199.1 117.65 198.9 117.75 196.85 118.25 196.65 85.6 196.75 85.6
M 16.4 85.85
L 16.75 85.75 17.15 85.7 17.2 85.7 17.75 118.35 11.95 115.85 11.8 115.75 11.2 115.45 8.35 113.6 8.15 113.5 8 113.35 7.8 113.25 7.7 113.15 7.65 113.15 7.65 113.1 7.6 113.1 6.05 111.85 5 110.65 3.45 107.95 2.9 106.45 2.25 103.25 2.15 101.6 2.1 101.4 2.05 100.1 2.35 98.3 2.35 98.2 2.4 98.15 2.4 97.95 3.5 94.55 3.75 94.05 3.85 93.9 4 93.6 4.05 93.55 4.1 93.45 4.15 93.3 4.95 92.15
Q 5.05 91.95 5.4 91.6
L 5.6 91.3 6.6 90.35 6.75 90.25 6.9 90.1 7.75 89.45 7.85 89.4 10.35 88 10.65 87.8 11 87.65 11.2 87.6 11.35 87.5 13.1 86.75 16 85.9 16.4 85.85 Z"/>
</g>
</defs>

<g transform="matrix( 1.8730926513671875, 0, 0, 1.873077392578125, 50,91.75) ">
<g transform="matrix( 1, 0, 0, 1, -139.85,-162.7) ">
<use xlink:href="#Listening_0_Layer0_0_FILL"/>

<use xlink:href="#Listening_0_Layer0_0_STROKES_1_FILL"/>
</g>

<g transform="matrix( 1, 0, 0, 1, 0,0) ">
<use xlink:href="#Listening_0_Layer0_1_FILL"/>

<use xlink:href="#Listening_0_Layer0_1_STROKES_1_FILL"/>
</g>
</g>
</svg>
